<?xml version="1.0" encoding="utf-8"?>
<!-- Generator: Adobe Illustrator 25.0.0, SVG Export Plug-In . SVG Version: 6.00 Build 0)  -->
<svg version="1.2" baseProfile="tiny" id="Layer_1" xmlns="http://www.w3.org/2000/svg" xmlns:xlink="http://www.w3.org/1999/xlink"
	 x="0px" y="0px" viewBox="0 0 198.4252014 85.0393677" overflow="visible" xml:space="preserve">
<g>
	<rect x="102.216423" y="13.980135" fill="#5D5D5D" width="0.8506" height="57.0791016"/>
	<g>
		<g>
			<path fill="#5C5C5C" d="M26.2011986,57.8109207c-1.2975922,0-2.2041912-0.8366852-2.2041912-2.2293777v-3.5089684h0.782896
				v3.5089684c0,1.0908623,0.679285,1.5017433,1.4212952,1.5017433c0.7355213,0,1.445158-0.4183464,1.445158-1.5017433v-3.5089684
				h0.765522v3.5089684C28.4118786,56.9293022,27.4610462,57.8109207,26.2011986,57.8109207"/>
			<path fill="#5C5C5C" d="M33.755394,57.7155457l-2.9615498-4.0880661
				c-0.0299301-0.0463982-0.0997715-0.1553802-0.0997715-0.1553802s0.0143032,0.1246834,0.0143032,0.1867065v4.0567398h-0.7720108
				v-5.642971h0.6578655l2.9226875,4.0132027c0.0443039,0.0599327,0.0997734,0.1628418,0.0997734,0.1628418
				s-0.0149307-0.1165161-0.0149307-0.1867065v-3.9893379h0.7715912v5.642971H33.755394"/>
			<rect x="35.937748" y="52.0725746" fill="#5C5C5C" width="0.7743833" height="5.642972"/>
			<path fill="#5C5C5C" d="M40.3525505,57.7155457h-0.4793243l-1.9878349-5.642971h0.7498245l1.4281349,4.0731354
				c0.0262337,0.0736046,0.0486984,0.1969604,0.0486984,0.1969604s0.024559-0.1233559,0.0456314-0.1969604l1.4383698-4.0731354
				h0.7358551L40.3525505,57.7155457"/>
			<polyline fill="#5C5C5C" points="43.5082626,57.7155457 43.5082626,52.0725746 46.6619072,52.0725746 46.6619072,52.8002815 
				44.2788734,52.8002815 44.2788734,54.601757 46.6067162,54.601757 46.6067162,55.3274384 44.2788734,55.3274384 
				44.2788734,56.9885368 46.8077126,56.9885368 46.8077126,57.7155457 43.5082626,57.7155457 			"/>
			<path fill="#5C5C5C" d="M49.8717575,52.8002815h-0.9153976v1.9411545h0.898365
				c0.6973648,0,1.1000443-0.4333458,1.1000443-1.0383263C50.9547691,53.3194427,50.6072769,52.8002815,49.8717575,52.8002815
				 M51.2378693,57.7155457l-2.2815094-2.6347466v2.6347466h-0.7706108v-5.642971h1.8253441
				c1.0496292,0,1.746994,0.748848,1.746994,1.6618652c0,0.9041557-0.7672043,1.6161652-1.6093559,1.6161652l2.0794907,2.3649406
				H51.2378693z"/>
			<path fill="#5C5C5C" d="M54.7270813,57.8109207c-0.5716591,0-1.1375198-0.1491699-1.6563721-0.5723267l0.4435654-0.5975151
				c0.3021736,0.2705002,0.7876396,0.4176483,1.1746483,0.4176483c0.5719872,0,0.9658432-0.2555008,0.9658432-0.7869415
				c0-0.4796753-0.4408836-0.7427101-0.9426804-1.0002327c-0.8067207-0.4087868-1.6257019-0.7630806-1.6257019-1.8389435
				c0-0.834034,0.6179886-1.4547157,1.6318359-1.4547157c0.5658531,0,1.0836906,0.1724052,1.5245018,0.4816971l-0.4183464,0.6350517
				c-0.3501778-0.2561989-0.6434937-0.3584099-1.1122894-0.3584099c-0.4432144,0-0.8128548,0.2227745-0.8128548,0.6506767
				c0,0.6098671,0.5413361,0.8183403,1.2373466,1.1678925c0.6425171,0.3154297,1.3221512,0.7263107,1.3221512,1.6713524
				C56.4587288,57.2385941,55.6703911,57.8109207,54.7270813,57.8109207"/>
			<rect x="57.7270889" y="52.0725746" fill="#5C5C5C" width="0.7736856" height="5.642972"/>
			<polyline fill="#5C5C5C" points="61.7010803,52.8002815 61.7010803,57.7155457 60.9290695,57.7155457 60.9290695,52.8002815 
				59.7765999,52.8002815 59.7765999,52.0725746 62.8988991,52.0725746 62.8988991,52.8002815 61.7010803,52.8002815 			"/>
			<path fill="#5C5C5C" d="M66.0011063,51.6249275h-0.7423553l0.7198181-1.1378212h0.7416611L66.0011063,51.6249275
				 M64.1770935,57.7155457v-5.642971h3.1543274v0.7277069h-2.3837051v1.8014755h2.3285217v0.7256813h-2.3285217v1.6610985
				h2.5308533v0.7270088H64.1770935z"/>
			<path fill="#5C5C5C" d="M73.4009018,52.7696495H72.752243v4.2516098h0.5031891
				c1.6693268,0,2.3728256-1.0833282,2.3728256-2.1340027C75.6282578,53.7344398,74.7550812,52.7696495,73.4009018,52.7696495
				 M73.3484344,57.7155457h-1.3688278v-5.642971h1.4356003c1.9278946,0,3.0156937,1.2687073,3.0156937,2.8065186
				C76.4309006,56.4475365,75.2797546,57.7155457,73.3484344,57.7155457z"/>
			<path fill="#5C5C5C" d="M79.9275894,57.8109207c-1.2973175,0-2.2017517-0.8366852-2.2017517-2.2293777v-3.5089684h0.7784348
				v3.5089684c0,1.0908623,0.6816559,1.5017433,1.423317,1.5017433c0.7365646,0,1.444809-0.4183464,1.444809-1.5017433v-3.5089684
				h0.7668457v3.5089684C82.1392441,56.9293022,81.1884079,57.8109207,79.9275894,57.8109207"/>
			<rect x="23.4206333" y="47.4925575" fill="#5C5C5C" width="59.3011894" height="0.8121291"/>
			<polyline fill="#5C5C5C" points="24.0235901,67.5277328 24.0235901,61.8827248 24.7976246,61.8827248 24.7976246,66.8007278 
				26.9394417,66.8007278 26.9394417,67.5277328 24.0235901,67.5277328 			"/>
			<path fill="#5C5C5C" d="M30.6065102,67.6190338c-1.3010807,0-2.206213-0.8312531-2.206213-2.2259827v-3.5103264h0.782196
				v3.5103264c0,1.0922089,0.679636,1.5017014,1.424017,1.5017014c0.7334976,0,1.4437637-0.4163055,1.4437637-1.5017014v-3.5103264
				h0.7651711v3.5103264C32.8154449,66.7400894,31.8649616,67.6190338,30.6065102,67.6190338"/>
			<path fill="#5C5C5C" d="M38.2223129,67.5277328l-1.2597771-1.9261856
				c-0.0923729-0.1376343-0.2422409-0.3931427-0.2422409-0.3931427s-0.1447754,0.2473297-0.2555008,0.4094925L35.21381,67.5277328
				h-0.8963432l1.9572029-2.9781952l-1.7323341-2.6668129h0.94944l1.083744,1.6706772
				c0.0841446,0.1321793,0.1764488,0.2943382,0.1764488,0.2943382s0.0848427-0.162159,0.1867065-0.3106918l1.0907936-1.6543236
				h0.8854599l-1.7214508,2.6279793l1.9626465,3.0170288H38.2223129"/>
			<polyline fill="#5C5C5C" points="40.6799812,67.5277328 40.6799812,61.8827248 43.8353119,61.8827248 43.8353119,62.609726 
				41.4533043,62.609726 41.4533043,64.4098587 43.781826,64.4098587 43.781826,65.139595 41.4533043,65.139595 
				41.4533043,66.8007278 43.9821434,66.8007278 43.9821434,67.5277328 40.6799812,67.5277328 			"/>
			<path fill="#5C5C5C" d="M50.7002831,67.5277328v-4.1521645c0-0.1022072,0.0170364-0.2187157,0.0170364-0.2187157
				s-0.049057,0.0926628-0.0790367,0.1355934l-1.7715225,2.3888206H48.557766l-1.7834396-2.3288689
				c-0.0316811-0.0388336-0.0773315-0.1219597-0.0773315-0.1219597s0.0149918,0.1076508,0.0149918,0.2078133v4.0894814h-0.7740211
				v-5.6450081h0.6578484l2.1268425,2.7615242l2.0638199-2.7615242h0.6878242v5.6450081H50.7002831"/>
			<path fill="#5C5C5C" d="M55.301445,65.1232376h-0.9106178v1.6774902h0.8346405
				c0.6960297,0,1.0193443-0.3406754,1.0193443-0.8646393C56.244812,65.4482422,55.8741226,65.1232376,55.301445,65.1232376
				 M54.9784775,62.609726h-0.5876503v1.7878723h0.518856c0.8408051,0,1.0335808-0.509655,1.0335808-0.9838791
				C55.943264,62.9115677,55.6104584,62.609726,54.9784775,62.609726z M55.3117027,67.5277328h-1.6955719v-5.6450081h1.4925385
				c0.9610214,0,1.6406555,0.5900497,1.6406555,1.4696732c0,0.650013-0.2871742,1.0649605-0.6479607,1.2979774
				c0.4374619,0.1321869,0.9474144,0.6520538,0.9474144,1.3463593
				C57.0487785,66.6998901,56.5551529,67.5277328,55.3117027,67.5277328z"/>
			<path fill="#5C5C5C" d="M61.2176399,62.5484047c-1.2223091,0-2.0631142,0.9055176-2.0631142,2.1435356
				c0,1.252327,0.9807625,2.1728363,2.0938148,2.1728363c1.1068382,0,2.0811844-0.8373871,2.0811844-2.1891861
				C63.329525,63.4539223,62.46381,62.5484047,61.2176399,62.5484047 M61.2483406,67.6190338
				c-1.6148415,0-2.8991776-1.2298431-2.8991776-2.9270935c0-1.6475105,1.229847-2.8998413,2.8596153-2.8998413
				c1.7507515,0,2.9240112,1.2754974,2.9240112,2.9121017C64.1327896,66.3455811,62.8433647,67.6190338,61.2483406,67.6190338z"/>
			<path fill="#5C5C5C" d="M67.859169,67.6190338c-1.2980118,0-2.2011261-0.8312531-2.2011261-2.2259827v-3.5103264h0.7784348
				v3.5103264c0,1.0922089,0.6810303,1.5017014,1.4226913,1.5017014c0.7371979,0,1.4488525-0.4163055,1.4488525-1.5017014
				v-3.5103264h0.7655258v3.5103264C70.0735474,66.7400894,69.1206894,67.6190338,67.859169,67.6190338"/>
			<path fill="#5C5C5C" d="M73.5130234,62.609726h-0.9099503v1.9398117h0.8956451
				c0.695961,0,1.0986786-0.4292526,1.0986786-1.0322495C74.5973969,63.1282349,74.2471466,62.609726,73.5130234,62.609726
				 M74.8818512,67.5277328l-2.2787781-2.6361542v2.6361542h-0.7750778v-5.6450081h1.8260345
				c1.0513687,0,1.7453079,0.7522087,1.7453079,1.6638603c0,0.9048386-0.764473,1.6154861-1.608696,1.6154861l2.0825806,2.3656616
				H74.8818512z"/>
			<path fill="#5C5C5C" d="M79.6509476,67.6190338c-1.4274368,0-2.858223-1.1657944-2.858223-2.9148331
				c0-1.7469826,1.3153152-2.9121017,2.8684769-2.9121017c0.9133682,0,1.5387955,0.2943497,2.0801392,0.7637978
				l-0.4708099,0.5723381c-0.4895096-0.4006386-0.9668121-0.5798302-1.6229324-0.5798302
				c-1.1375351,0-2.0509033,0.8564606-2.0509033,2.1653328c0,1.1439972,0.9358292,2.1510391,2.0815353,2.1510391
				c0.8107986,0,1.4594574-0.4592361,1.6604691-1.1392212h-1.701355v-0.7249603h2.5990219
				C82.2363663,66.532959,81.0133591,67.6190338,79.6509476,67.6190338"/>
		</g>
		<g>
			<path fill="#E1140B" d="M51.7005119,23.9538574c-0.8319359,0-1.5517807-0.467392-1.9108543-1.1944008h-0.2466545v18.816906
				c0,1.1909828,0.9658203,2.1571655,2.1575089,2.1571655c1.1882744,0,2.1540947-0.9661827,2.1540947-2.1571655v-18.816906
				h-0.2418785C53.2522926,23.4864655,52.5297127,23.9538574,51.7005119,23.9538574"/>
			<path fill="#E1140B" d="M49.5402832,19.6143398c0-1.1937752,0.9685402-2.1605854,2.1629486-2.1605854
				c1.1950951,0,2.1615982,0.9668102,2.1615982,2.1605854c0,1.1944008-0.9665031,2.1619091-2.1615982,2.1619091
				C50.5088234,21.7762489,49.5402832,20.8087406,49.5402832,19.6143398"/>
			<path fill="#E1140B" d="M26.158638,43.7335281L26.158638,43.7335281c-1.1889591,0-2.1547928-0.9627647-2.1547928-2.1571655
				V24.9145279c0-1.1909828,0.9658337-2.1550713,2.1547928-2.1550713c1.1944027,0,2.1612129,0.9640884,2.1612129,2.1550713
				v18.8190002H26.158638"/>
			<path fill="#E1140B" d="M29.4825764,43.7335281L29.4825764,43.7335281V24.9145279
				c0-1.1909828,0.9668808-2.1550713,2.156189-2.1550713c1.1930065,0,2.1571674,0.9640884,2.1571674,2.1550713v18.8190002h0.0054398
				c-1.0226936,0-1.2588005-1.1828194-1.2588005-2.3370323h0.0027237c0,1.1896553-0.9651375,2.3370323-2.1575165,2.3370323
				h-0.9003887"/>
			<path fill="#E1140B" d="M44.4216156,22.7567348L44.4216156,22.7567348c1.188282,0,2.1564827,0.9668102,2.1564827,2.1605148
				v16.6611347c0,1.1910553-0.9682007,2.1551437-2.1564827,2.1551437c-1.1913452,0-2.1581841-0.9640884-2.1581841-2.1551437
				V22.7567348H44.4216156"/>
			<path fill="#E1140B" d="M41.095932,22.7567348h0.0040894v18.8216496c0,1.1910553-0.9661331,2.1551437-2.1564903,2.1551437
				c-1.1906319,0-2.1595345-0.9640884-2.1595345-2.1551437V22.7567348H36.781971
				c1.0199776,0.0027218,1.2570572,1.1875648,1.2570572,2.3424759h-0.003418c0-1.1909828,0.966877-2.3424759,2.1585579-2.3424759
				H41.095932"/>
		</g>
		<g>
			<path fill="#00AADC" d="M67.2315826,18.6168308c-0.8318787,0-1.5606308-0.4735336-1.9210663-1.1964951h-0.2459412v24.1560268
				c0,1.1909828,0.9637451,2.1571655,2.1649857,2.1571655c1.1903534,0,2.1564636-0.9661827,2.1564636-2.1571655V17.4203358
				h-0.2421722C68.7830658,18.1432972,68.0635223,18.6168308,67.2315826,18.6168308"/>
			<path fill="#00AADC" d="M74.5227432,43.7335281L74.5227432,43.7335281c-1.1902847,0-2.1561203-0.9640884-2.1561203-2.1571655
				V24.9145279c0-1.1909828,0.9658356-2.157793,2.1561203-2.157793c1.1916809,0,2.1582108,0.9668102,2.1582108,2.157793v18.8190002
				H74.5227432"/>
			<path fill="#00AADC" d="M77.8501663,43.7335281h-0.003418V24.9145279c0-1.1909828,0.9624176-2.157793,2.1575165-2.157793
				c1.1896591,0,2.1557693,0.9668102,2.1557693,2.157793v18.8190002h0.003418c-1.0189285,0-1.2574005-1.1855392-1.2574005-2.339756
				h0.0033493c0,1.1902885-0.9664612,2.339756-2.1581421,2.339756H77.8501663"/>
			<path fill="#00AADC" d="M57.314537,41.5743408c0-1.1971931,0.9675064-2.1647034,2.1639328-2.1647034
				c1.192379,0,2.1609344,0.9675102,2.1609344,2.1647034c0,1.1930046-0.9685555,2.1591873-2.1609344,2.1591873
				C58.2820435,43.7335281,57.314537,42.7673454,57.314537,41.5743408"/>
		</g>
	</g>
	<g>
		<g>
			<path fill="#00AADC" d="M134.5923767,45.1001472c1.4901276,0,2.6984253,1.209053,2.6984253,2.6989021
				c0,1.4919472-1.2082977,2.6999779-2.6984253,2.6999779c-1.4901123,0-2.6970825-1.2080307-2.699173-2.6999779
				C131.8932037,46.3092003,133.1022644,45.1001472,134.5923767,45.1001472L134.5923767,45.1001472z"/>
			<path fill="#00AADC" d="M134.6469269,55.078701c1.2311249,0,2.2286224,0.9967575,2.2286224,2.2278252
				c0,1.2305794-0.9974976,2.2278786-2.2286224,2.2278786s-2.228363-0.9972992-2.228363-2.2278786
				C132.4185638,56.0775528,133.415802,55.0803108,134.6469269,55.078701L134.6469269,55.078701z"/>
			<path fill="#00AADC" d="M134.6122894,64.2485199c1.0109406,0,1.8277893,0.8184509,1.8277893,1.8272934
				c0,1.0113602-0.8168488,1.8261642-1.8277893,1.8261642c-1.0077057,0-1.8256226-0.8148041-1.8256226-1.8261642
				C132.7866669,65.0669708,133.6045837,64.2485199,134.6122894,64.2485199L134.6122894,64.2485199z"/>
			<path fill="#00AADC" d="M125.261116,45.1001472c1.4895782,0,2.699707,1.209053,2.699707,2.6989021
				c0,1.4919472-1.2080307,2.6999779-2.6981506,2.6999779c-1.4916763,0-2.7010498-1.2080307-2.7010498-2.6999779
				C122.5616226,46.3092003,123.7709961,45.1001472,125.261116,45.1001472L125.261116,45.1001472z"/>
			<path fill="#00AADC" d="M125.2810364,55.078701c1.2295074,0,2.2267456,0.9967575,2.2267456,2.2278252
				c0.0010757,1.2305794-0.99617,2.2278786-2.2267456,2.2278786c-1.2295609,0-2.2265396-0.9972992-2.2265396-2.2278786
				C123.0544968,56.0775528,124.0514755,55.0803108,125.2810364,55.078701L125.2810364,55.078701z"/>
			<path fill="#00AADC" d="M125.2810364,64.2485199c1.0082474,0,1.82724,0.8184509,1.82724,1.8272934
				c0,1.0113602-0.8189926,1.8261642-1.82724,1.8261642c-1.0085754,0-1.8262177-0.8148041-1.8262177-1.8261642
				C123.4548187,65.0669708,124.2724609,64.2485199,125.2810364,64.2485199L125.2810364,64.2485199z"/>
			<path fill="#00AADC" d="M143.9790039,55.078701c1.2311096,0,2.2283478,0.9967575,2.2283478,2.2278252
				c0,1.2305794-0.9972382,2.2278786-2.2283478,2.2278786c-1.2289734,0-2.2262268-0.9972992-2.2262268-2.2278786
				C141.7506866,56.0775528,142.7479248,55.0803108,143.9790039,55.078701L143.9790039,55.078701z"/>
			<path fill="#00AADC" d="M144.0220032,64.2485199c1.0077667,0,1.8256836,0.8184509,1.8256836,1.8272934
				c0,1.0113602-0.8179169,1.8261642-1.8256836,1.8261642c-1.0087891,0-1.827774-0.8148041-1.827774-1.8261642
				C142.1942291,65.0669708,143.0132141,64.2485199,144.0220032,64.2485199L144.0220032,64.2485199z"/>
			<path fill="#00AADC" d="M153.3538513,55.078701c1.2289734,0,2.2262726,0.9967575,2.2262726,2.2278252
				c0,1.2305794-0.9972992,2.2278786-2.2262726,2.2278786c-1.232132,0-2.2294312-0.9972992-2.2294312-2.2278786
				C151.1244202,56.0775528,152.1217194,55.0803108,153.3538513,55.078701L153.3538513,55.078701z"/>
			<path fill="#00AADC" d="M153.3391418,64.2485199c1.0087891,0,1.826767,0.8184509,1.826767,1.8272934
				c0,1.0113602-0.8179779,1.8261642-1.826767,1.8261642s-1.8256226-0.8148041-1.8256226-1.8261642
				C151.5135193,65.0669708,152.3303528,64.2485199,153.3391418,64.2485199L153.3391418,64.2485199z"/>
			<path fill="#00AADC" d="M162.6982727,55.078701c1.2289734,0,2.2262726,0.9967575,2.2262726,2.2278252
				c0,1.2305794-0.9972992,2.2278786-2.2262726,2.2278786c-1.2311249,0-2.228363-0.9972992-2.228363-2.2278786
				C160.4699097,56.0775528,161.4671478,55.0803108,162.6982727,55.078701L162.6982727,55.078701z"/>
			<path fill="#00AADC" d="M162.67099,64.2485199c1.0077667,0,1.8267059,0.8184509,1.8267059,1.8272934
				c0,1.0113602-0.8189392,1.8261642-1.8267059,1.8261642c-1.0087738,0-1.827774-0.8148041-1.827774-1.8261642
				C160.8432159,65.0669708,161.6622162,64.2485199,162.67099,64.2485199L162.67099,64.2485199z"/>
			<path fill="#00AADC" d="M172.0500488,55.078701c1.2310638,0,2.228302,0.9967575,2.228302,2.2278252
				c0,1.2305794-0.99617,2.2278786-2.228302,2.2278786c-1.2290344,0-2.2262726-0.9972992-2.2262726-2.2278786
				C169.8237762,56.0775528,170.8210144,55.0803108,172.0500488,55.078701L172.0500488,55.078701z"/>
			<path fill="#00AADC" d="M172.0646973,64.2805176c1.0087891,0,1.8267059,0.8195267,1.8267059,1.8262177
				c0,1.0087891-0.8179169,1.8282623-1.8267059,1.8282623c-1.0077667,0-1.8267059-0.8194733-1.8267059-1.8282623
				C170.2379913,65.1000443,171.0538177,64.2805176,172.0646973,64.2805176L172.0646973,64.2805176z"/>
		</g>
		<g>
			<path fill="#E1140B" d="M162.6783447,39.9332085c-1.48909,0-2.6981506-1.2080307-2.6981506-2.6980972
				c0-1.4909248,1.2080383-2.6989555,2.6981506-2.7007828c1.4911499,0,2.699173,1.2098579,2.699173,2.6999779
				C165.3775177,38.7251778,164.1694946,39.9332085,162.6783447,39.9332085L162.6783447,39.9332085z"/>
			<path fill="#E1140B" d="M162.6238098,29.9580383c-1.2290344,0-2.2262726-0.997242-2.2262726-2.2280922
				c0-1.2297764,0.9972382-2.2267513,2.2262726-2.2278252c1.232132,0,2.2262573,0.9972439,2.2262573,2.2278252
				C164.8521729,28.958971,163.8559418,29.9559441,162.6238098,29.9580383L162.6238098,29.9580383z"/>
			<path fill="#E1140B" d="M162.6552582,20.7872028c-1.0066833,0-1.8256836-0.8197975-1.8256836-1.8283157
				s0.8190002-1.8262215,1.8256836-1.8262215c1.0087891,0,1.8277893,0.8168983,1.8277893,1.8262215
				C164.4830475,19.9674053,163.6651306,20.7872028,162.6552582,20.7872028L162.6552582,20.7872028z"/>
			<path fill="#E1140B" d="M172.0049438,39.9332085c-1.4901276,0-2.7002411-1.2080307-2.7002411-2.6980972
				c0-1.4909248,1.2080383-2.6989555,2.7002411-2.7007828c1.4901123,0,2.699173,1.2098579,2.699173,2.6999779
				C174.7041168,38.7251778,173.4950562,39.9332085,172.0049438,39.9332085L172.0049438,39.9332085z"/>
			<path fill="#E1140B" d="M171.9850311,29.9580383c-1.2311249,0-2.228363-0.997242-2.228363-2.2280922
				c0-1.2297764,0.9972382-2.2267513,2.228363-2.2278252c1.2310638,0,2.2272797,0.9972439,2.2272797,2.2278252
				C174.2123108,28.958971,173.216095,29.9559441,171.9850311,29.9580383L171.9850311,29.9580383z"/>
			<path fill="#E1140B" d="M171.9881439,20.7872028c-1.0087891,0-1.8267059-0.8197975-1.8267059-1.8283157
				s0.8179169-1.8262215,1.8267059-1.8262215c1.0077667,0,1.8256836,0.8168983,1.8256836,1.8262215
				C173.8148956,19.9674053,172.996933,20.7872028,171.9881439,20.7872028L171.9881439,20.7872028z"/>
			<path fill="#E1140B" d="M153.2626343,39.9332085c-1.4911957,0-2.6992188-1.2080307-2.6992188-2.6980972
				c0-1.4909248,1.2059326-2.6989555,2.6971283-2.7007828c1.4900665,0,2.7002411,1.2098579,2.7002411,2.6999779
				C155.9607849,38.7251778,154.7506104,39.9332085,153.2626343,39.9332085L153.2626343,39.9332085z"/>
			<path fill="#E1140B" d="M153.2940979,29.9580383c-1.2311249,0-2.228363-0.997242-2.228363-2.2280922
				c0-1.2297764,0.9972382-2.2267513,2.228363-2.2278252c1.2289734,0,2.2262115,0.9972439,2.2262115,2.2278252
				C155.5203094,28.958971,154.5230713,29.9559441,153.2940979,29.9580383L153.2940979,29.9580383z"/>
			<path fill="#E1140B" d="M153.2479248,20.7872028c-1.0087891,0-1.8256836-0.8197975-1.8256836-1.8283157
				s0.8168945-1.8262215,1.8256836-1.8262215s1.8267517,0.8168983,1.8267517,1.8262215
				C155.0746765,19.9674053,154.2567139,20.7872028,153.2479248,20.7872028L153.2479248,20.7872028z"/>
			<path fill="#E1140B" d="M143.9674988,39.9332085c-1.4901123,0-2.6981506-1.2080307-2.6981506-2.6980972
				c-0.0010681-1.4909248,1.2080383-2.6989555,2.6981506-2.7007828c1.4911499,0,2.699173,1.2098579,2.699173,2.6999779
				C146.6666718,38.7251778,145.4586487,39.9332085,143.9674988,39.9332085L143.9674988,39.9332085z"/>
			<path fill="#E1140B" d="M143.9203186,29.9580383c-1.2300568,0-2.2262726-0.997242-2.227356-2.2280922
				c0-1.2297764,0.9972992-2.2267513,2.227356-2.2278252c1.2300415,0,2.2283478,0.9972439,2.2283478,2.2278252
				C146.1486664,28.958971,145.1513824,29.9559441,143.9203186,29.9580383L143.9203186,29.9580383z"/>
			<path fill="#E1140B" d="M143.9307861,20.7872028c-1.0087891,0-1.8267059-0.8197975-1.8267059-1.8283157
				s0.8179169-1.8262215,1.8267059-1.8262215c1.0087738,0,1.827774,0.8168983,1.827774,1.8262215
				C145.7585602,19.9674053,144.9406433,20.7872028,143.9307861,20.7872028L143.9307861,20.7872028z"/>
			<path fill="#E1140B" d="M134.6364594,39.9350891c-1.4891052,0-2.6971283-1.2080307-2.6971283-2.6978836
				c-0.0021057-1.4919434,1.2080231-2.6999779,2.6971283-2.6999779c1.492218,0,2.7005157,1.2080345,2.7005157,2.6978836
				C137.3369751,38.7251778,136.1286774,39.9350891,134.6364594,39.9350891L134.6364594,39.9350891z"/>
			<path fill="#E1140B" d="M134.5682678,29.9580383c-1.2300415,0-2.2262573-0.997242-2.2272797-2.2280922
				c0-1.2297764,0.9972382-2.2267513,2.2272797-2.2278252c1.2300415,0,2.2262726,0.9972439,2.2262726,2.2278252
				C136.7945404,28.958971,135.7983093,29.9559441,134.5682678,29.9580383L134.5682678,29.9580383z"/>
			<path fill="#E1140B" d="M134.5987091,20.7872028c-1.0088348,0-1.8267517-0.8197975-1.8267517-1.8283157
				s0.8179169-1.8262215,1.8267517-1.8262215c1.0098114,0,1.8256378,0.8168983,1.8256378,1.8262215
				C136.4264832,19.9674053,135.6085205,20.7872028,134.5987091,20.7872028L134.5987091,20.7872028z"/>
			<path fill="#E1140B" d="M125.2694931,34.477417c1.4895782,0,2.699707,1.2077637,2.699707,2.6978836
				s-1.2101288,2.6999779-2.699707,2.6999779c-1.4898529,0-2.6978836-1.2080307-2.6978836-2.6981506
				C122.5699997,35.6851807,123.7780304,34.477417,125.2694931,34.477417L125.2694931,34.477417z"/>
			<path fill="#E1140B" d="M125.2228394,29.9580383c-1.2311172,0-2.228096-0.997242-2.228096-2.2280922
				c0-1.2297764,0.9969788-2.2267513,2.228096-2.2278252c1.2300415,0,2.2262039,0.9972439,2.2262039,2.2278252
				C127.450119,28.958971,126.4528809,29.9559441,125.2228394,29.9580383L125.2228394,29.9580383z"/>
			<path fill="#E1140B" d="M125.2054901,20.7586384c-1.0085144,0-1.8261642-0.8177013-1.8261642-1.8262196
				s0.8160934-1.8280468,1.8261642-1.8280468c1.0083008,0,1.8262253,0.8177032,1.8272934,1.8262215
				C127.0327835,19.940937,126.2137909,20.7586384,125.2054901,20.7586384L125.2054901,20.7586384z"/>
		</g>
		<g>
			<polygon fill="#5E5E5D" points="144.0218506,43.6561241 142.1853027,43.6561241 142.1853027,51.271759 146.8437653,51.271759 
				146.8437653,49.5506821 144.0218506,49.5506821 			"/>
			<path fill="#5E5E5D" d="M155.9341278,49.3994675c-0.2452393,0.1468124-0.8049927,0.2661362-1.2470856,0.2661362
				c-1.2196045,0-2.1048889-0.9265251-2.1048889-2.2027626c0-1.3174782,0.8654938-2.2022095,2.1543732-2.2022095
				c0.4234009,0,0.8170929,0.1061249,1.1690063,0.3161736l0.6004639,0.3579597l0.1572571-1.9426727l-0.2826233-0.1248207
				c-0.4992828-0.2204971-1.0524445-0.3277206-1.6935883-0.3277206c-2.3545227,0-3.9997253,1.6017609-3.9997253,3.8946991
				c0,2.364418,1.6045074,3.9535294,3.990921,3.9535294c0.7027283,0,1.2602997-0.0901756,1.7045898-0.2749329l0.2870178-0.1193199
				l-0.1220703-1.9602699L155.9341278,49.3994675z"/>
			<path fill="#5E5E5D" d="M163.3584137,46.451088c-0.6202393-0.2991257-0.9127808-0.468483-0.9127808-0.7269211
				c0-0.3079224,0.249649-0.4635353,0.7423248-0.4635353c0.4299927,0,0.6455383,0.0687332,1.1074219,0.2507362l0.5080872,0.199604
				l0.2705231-1.7843132l-0.3387146-0.119873c-0.4783783-0.1699066-1.056839-0.2672348-1.5847168-0.2672348
				c-1.5550079,0-2.599762,0.9127769-2.599762,2.2709465c0,1.4126015,1.085434,1.9228783,1.8783417,2.2956886
				c0.7093353,0.3332176,1.019455,0.5185204,1.019455,0.8940811c0,0.5460129-0.6411438,0.6653366-0.8885803,0.6653366
				c-0.3871002,0-0.8907776-0.1517639-1.2328033-0.294178l-0.5366669-0.2226982l-0.2012482,1.8294029l0.3387146,0.1088753
				c0.4706879,0.1523132,0.9765625,0.3007736,1.5165253,0.3007736c1.8156586,0,2.8999939-0.9144249,2.8999939-2.4463501
				C165.3445282,47.407856,164.1964111,46.8546906,163.3584137,46.451088z"/>
			<path fill="#5E5E5D" d="M174.1335754,47.3479195c0.4629822-0.3634605,0.6961365-0.884182,0.6961365-1.5572166
				c0-0.7973061-0.3640137-2.1345787-2.8010254-2.1345787h-2.2632446v7.6156349h2.233551
				c1.9938202,0,3.0055695-0.751667,3.0055695-2.2330017C175.0045624,48.3129349,174.677948,47.71138,174.1335754,47.3479195z
				 M172.9931488,45.8874779c0,0.4503403-0.1220703,0.6471901-1.2932739,0.6471901h-0.0967712v-1.2157516h0.5795441
				C172.9931488,45.3189163,172.9931488,45.7467117,172.9931488,45.8874779z M171.6031036,49.6078682v-1.4082069h0.1924438
				c1.2118988,0,1.3130798,0.3717079,1.3130798,0.7522163c0,0.2611847,0,0.6559906-1.2174072,0.6559906H171.6031036z"/>
		</g>
	</g>
</g>
</svg>
